<svg xmlns="http://www.w3.org/2000/svg" width="109.941" height="24.805" viewBox="0 0 109.941 24.805">
  <g id="Group_1" data-name="Group 1" transform="translate(-0.059)">
    <path id="Path_1" data-name="Path 1" d="M11.064,9.082V10.6l-1.709.439a2.979,2.979,0,0,1,.469,1.641,3.32,3.32,0,0,1-1.23,2.744,5.306,5.306,0,0,1-3.4.977l-.537-.029-.439-.049a.99.99,0,0,0-.459.781q0,.645,1.641.645H7.256a4.212,4.212,0,0,1,2.734.771,2.751,2.751,0,0,1,.947,2.266,3.357,3.357,0,0,1-1.6,2.969A8.29,8.29,0,0,1,4.756,24.8a6.342,6.342,0,0,1-3.5-.8,2.518,2.518,0,0,1-1.2-2.227,2.336,2.336,0,0,1,.615-1.65A3.493,3.493,0,0,1,2.48,19.18a2.008,2.008,0,0,1-.8-.635,1.54,1.54,0,0,1-.342-.947A1.509,1.509,0,0,1,1.7,16.563a4.11,4.11,0,0,1,1.045-.82,2.957,2.957,0,0,1-1.367-1.191,3.653,3.653,0,0,1-.5-1.934A3.41,3.41,0,0,1,2.041,9.854a5.025,5.025,0,0,1,3.32-.977,7.931,7.931,0,0,1,1.084.088q.635.078.811.117ZM2.637,21.543a1.081,1.081,0,0,0,.586.967,3.28,3.28,0,0,0,1.66.351,5.864,5.864,0,0,0,2.51-.439,1.339,1.339,0,0,0,.908-1.2.85.85,0,0,0-.537-.85,4.4,4.4,0,0,0-1.66-.234H4.561a2.382,2.382,0,0,0-1.377.381A1.2,1.2,0,0,0,2.637,21.543Zm1.084-8.887a2.242,2.242,0,0,0,.4,1.406,1.486,1.486,0,0,0,1.24.518,1.442,1.442,0,0,0,1.23-.518,2.283,2.283,0,0,0,.391-1.406q0-1.973-1.621-1.973Q3.721,10.684,3.721,12.656Zm10.723,1.865a4.617,4.617,0,0,0,.527,2.451,1.916,1.916,0,0,0,1.738.83,1.865,1.865,0,0,0,1.709-.82,4.64,4.64,0,0,0,.527-2.461,4.51,4.51,0,0,0-.527-2.432,1.907,1.907,0,0,0-1.728-.811,1.9,1.9,0,0,0-1.719.811A4.479,4.479,0,0,0,14.444,14.521Zm7.549,0a5.867,5.867,0,0,1-1.406,4.17,5.1,5.1,0,0,1-3.916,1.5,5.509,5.509,0,0,1-2.773-.684,4.61,4.61,0,0,1-1.846-1.982,6.645,6.645,0,0,1-.645-3.008,5.835,5.835,0,0,1,1.4-4.16,5.128,5.128,0,0,1,3.926-1.484,5.509,5.509,0,0,1,2.773.684,4.563,4.563,0,0,1,1.846,1.963A6.584,6.584,0,0,1,21.993,14.521Zm7.315-2.539h5.664v7.4a15.579,15.579,0,0,1-2.6.625,16.356,16.356,0,0,1-2.48.185A6.313,6.313,0,0,1,24.953,18.3a7.936,7.936,0,0,1-1.7-5.459,7.2,7.2,0,0,1,1.973-5.391,7.526,7.526,0,0,1,5.488-1.934,10.609,10.609,0,0,1,4.238.879L33.947,8.818a7.184,7.184,0,0,0-3.252-.781A4.016,4.016,0,0,0,27.55,9.355,5.114,5.114,0,0,0,26.369,12.9a5.737,5.737,0,0,0,.947,3.555,3.313,3.313,0,0,0,2.774,1.221,9.794,9.794,0,0,0,1.924-.2V14.5H29.308Zm10.411,2.539a4.617,4.617,0,0,0,.527,2.451,1.916,1.916,0,0,0,1.738.83,1.865,1.865,0,0,0,1.709-.82,4.64,4.64,0,0,0,.527-2.461,4.51,4.51,0,0,0-.527-2.432,2.238,2.238,0,0,0-3.447,0A4.479,4.479,0,0,0,39.719,14.521Zm7.549,0a5.867,5.867,0,0,1-1.406,4.17,5.1,5.1,0,0,1-3.916,1.5,5.509,5.509,0,0,1-2.773-.684,4.61,4.61,0,0,1-1.846-1.982,6.645,6.645,0,0,1-.645-3.008,5.835,5.835,0,0,1,1.4-4.16A5.128,5.128,0,0,1,42,8.877a5.509,5.509,0,0,1,2.773.684,4.563,4.563,0,0,1,1.846,1.963A6.584,6.584,0,0,1,47.268,14.521Zm9.278,2.236a3,3,0,0,1-1.172,2.559,5.743,5.743,0,0,1-3.486.879,10.65,10.65,0,0,1-2.031-.166,7.477,7.477,0,0,1-1.572-.469V17.1a10.42,10.42,0,0,0,1.865.654,7.629,7.629,0,0,0,1.836.264q1.621,0,1.621-.937a.766.766,0,0,0-.215-.566,2.928,2.928,0,0,0-.742-.5q-.527-.283-1.406-.654a8.981,8.981,0,0,1-1.855-.977,2.824,2.824,0,0,1-.859-1.025,3.49,3.49,0,0,1-.264-1.436,2.585,2.585,0,0,1,1.123-2.246,5.492,5.492,0,0,1,3.2-.8,9.078,9.078,0,0,1,3.838.859l-.9,2.148q-.82-.352-1.533-.576a4.816,4.816,0,0,0-1.455-.225q-1.318,0-1.318.713a.84.84,0,0,0,.42.693,11.829,11.829,0,0,0,1.865.869,8.642,8.642,0,0,1,1.875.967,2.86,2.86,0,0,1,.879,1.035A3.181,3.181,0,0,1,56.546,16.758Zm7.52,3.438a3.621,3.621,0,0,1-3.018-1.4h-.156q.156,1.367.156,1.582V24.8H58.07V9.082h2.422l.42,1.416h.137a3.446,3.446,0,0,1,3.1-1.621,3.543,3.543,0,0,1,3.027,1.494,6.911,6.911,0,0,1,1.094,4.15,8.125,8.125,0,0,1-.518,3.037,4.23,4.23,0,0,1-1.455,1.963A3.741,3.741,0,0,1,64.066,20.2Zm-.879-8.935a1.874,1.874,0,0,0-1.611.684,3.871,3.871,0,0,0-.527,2.236V14.5a4.636,4.636,0,0,0,.518,2.519,1.878,1.878,0,0,0,1.66.762q2,0,2-3.3a4.648,4.648,0,0,0-.5-2.412A1.669,1.669,0,0,0,63.188,11.26ZM74.448,11a1.881,1.881,0,0,0-1.484.605,2.757,2.757,0,0,0-.615,1.7h4.18a2.464,2.464,0,0,0-.576-1.7A1.943,1.943,0,0,0,74.448,11Zm.42,9.2a5.635,5.635,0,0,1-4.121-1.455,5.509,5.509,0,0,1-1.484-4.121,6.055,6.055,0,0,1,1.367-4.238,4.893,4.893,0,0,1,3.8-1.5,4.809,4.809,0,0,1,3.6,1.318,4.988,4.988,0,0,1,1.289,3.643v1.445H72.28a2.867,2.867,0,0,0,.752,1.982A2.646,2.646,0,0,0,75,17.979a8.184,8.184,0,0,0,1.865-.205,9.331,9.331,0,0,0,1.836-.654v2.3a6.846,6.846,0,0,1-1.67.576A10.274,10.274,0,0,1,74.868,20.2Zm9.054-.2H80.943V4.8h2.979Z" fill="#101010"/>
    <path id="Path_2" data-name="Path 2" d="M109.447,12.1,106,10.382V10a1,1,0,0,0-.485-.857L101,6.434V4h2V2h-2V0H99V2H97V4h2V6.434L94.485,9.143A1,1,0,0,0,94,10v.382l-3.447,1.724A1,1,0,0,0,90,13v6a1,1,0,0,0,1,1h18a1,1,0,0,0,1-1V13A1,1,0,0,0,109.447,12.1ZM92,13.618l2-1V18H92ZM100,13a2,2,0,0,0-2,2v3H96V10.566l4-2.4,4,2.4V18h-2V15a2,2,0,0,0-2-2Zm8,5h-2V12.618l2,1Z" fill="#101010"/>
  </g>
</svg>
